# xmcd
#
# Track frame offsets: 
#        150
#        17223
#        40645
#        60759
#        86147
#        105211
#        123066
#        162423
#        188363
#        201735
#        214804
#
# Disc length: 3124 seconds
#
# Revision: 0
# Processed by: cddbd v1.5.2PL0 Copyright (c) Steve Scherf et al.
# Submitted via: ExactAudioCopy v0.95b3
#
DISCID=860c320b
DTITLE=Grand Funk Railroad  - E Pluribus Funk (Remastered and Bonus)  FL
DTITLE=AC
DYEAR=1900
DGENRE=
TTITLE0=Footstompin' Music
TTITLE1=People, Let's Stop The War
TTITLE2=Upsetter
TTITLE3=I Come Tumblin'
TTITLE4=Save The Land
TTITLE5=No Lies
TTITLE6=Loneliness
TTITLE7=Live Medley: I'm Your Captain\\closer to Home
TTITLE8=Hooked on Love
TTITLE9=Get it Together
TTITLE10=Mark Say's Alright (live)
EXTD=
EXTT0=
EXTT1=
EXTT2=
EXTT3=
EXTT4=
EXTT5=
EXTT6=
EXTT7=
EXTT8=
EXTT9=
EXTT10=
PLAYORDER=
